<svg width="27" height="34" viewBox="0 0 27 34" fill="none" xmlns="http://www.w3.org/2000/svg">
<path d="M13.5 16.6282C17.4468 16.6282 20.6467 12.9059 20.6467 8.31415C20.6467 3.72231 19.5961 0 13.5 0C7.40388 0 6.35313 3.72231 6.35313 8.31415C6.35313 12.9059 9.55296 16.6282 13.5 16.6282Z" fill="#C9CECB"/>
<path d="M0.00140731 29.3228C-0.00103022 29.2439 0.000188544 29.0428 0.00140731 29.3228V29.3228Z" fill="#C9CECB"/>
<path d="M26.998 29.5414C26.9993 29.0096 27.0018 29.4647 26.998 29.5414V29.5414Z" fill="#C9CECB"/>
<path d="M26.9829 28.9871C26.8505 20.9882 25.7598 18.709 17.4133 17.2662C17.4133 17.2662 16.2384 18.7001 13.4999 18.7001C10.7615 18.7001 9.58636 17.2662 9.58636 17.2662C1.33092 18.6932 0.173876 20.9387 0.0217395 28.7273C0.00926434 29.3633 0.00363865 29.3966 0.00140731 29.3228C0.00191443 29.4611 0.00236729 29.7171 0.00236729 30.1633C0.00236729 30.1633 1.98947 34 13.4999 34C25.0102 34 26.9975 30.1633 26.9975 30.1633C26.9975 29.8766 26.9977 29.677 26.998 29.5414C26.9957 29.587 26.9913 29.4988 26.9829 28.9871Z" fill="#C9CECB"/>
</svg>
