<svg width="197" height="51" viewBox="0 0 197 51" fill="none" xmlns="http://www.w3.org/2000/svg">
<path d="M2.98343 9.85369C2.54801 10.0426 1.92599 10.7352 1.58387 11.3333C0.961849 12.4037 0.930748 12.9389 0.837444 27.9241L0.744141 43.4444H4.04087H7.30649V29.75V16.0555H14.3043H21.302V29.75V43.4444H24.5677H27.8644L27.7711 27.5148L27.6778 11.5852L26.527 10.5148L25.3452 9.44443H14.5531C6.56006 9.44443 3.54325 9.57035 2.98343 9.85369Z" fill="#C9CECB"/>
<path d="M159.702 26.4444V43.4444H162.968H166.234V26.4444V9.44443H162.968H159.702V26.4444Z" fill="#C9CECB"/>
<path d="M171.21 12.75V16.0555H175.719H180.229V29.75V43.4444H183.495H186.76V29.75V16.0555H191.27H195.78V12.75V9.44443H183.495H171.21V12.75Z" fill="#C9CECB"/>
<path d="M34.7687 19.1722C32.9027 20.3685 32.8716 20.4629 32.716 29.9074C32.5294 40.1074 32.6538 41.3352 34.0223 42.5629L34.9864 43.4444H43.9436H52.9007L53.896 40.3592C54.4558 38.6592 54.8912 37.1796 54.8912 37.0537C54.8912 36.9278 51.4079 36.8333 47.1159 36.8333H39.3406V31.0092V25.1852H46.1829H53.0251V26.4444V27.7037H47.4269H41.8287V31.0092V34.3463L49.604 34.2518L57.3793 34.1574L58.3745 33.1185L59.4009 32.1111L59.4942 27.0426C59.6186 21.5963 59.4631 20.7463 58.0946 19.4555L57.3171 18.7315L46.5561 18.637C36.2616 18.5741 35.7329 18.5741 34.7687 19.1722Z" fill="#C9CECB"/>
<path d="M64.5327 21.8796V25.1852H66.5232C68.4204 25.1852 68.5448 25.2167 69.5089 26.35C70.0687 27.0111 71.2195 28.3018 72.0592 29.2463C72.8989 30.1593 73.5521 31.0407 73.4899 31.1981C73.4277 31.3556 72.3391 32.6778 71.064 34.1259L68.7314 36.8018H66.6476L64.5327 36.8333V40.1389V43.4759L67.8605 43.3815L71.1884 43.287L74.4229 39.6667C76.1957 37.6833 77.7818 36.0463 77.9062 36.0463C78.0306 36.0463 79.6168 37.6833 81.3896 39.6667L84.6241 43.287L87.9519 43.3815L91.2797 43.4759V40.1389V36.8333H89.196L87.0811 36.8018L84.6552 34C83.069 32.1741 82.2915 31.0407 82.447 30.7889C82.5714 30.5685 83.7222 29.2148 84.9973 27.7667L87.3299 25.1852H89.3204H91.2797V21.8796V18.5741H88.294C86.6768 18.5741 85.0906 18.7 84.7796 18.8574C84.4997 19.0148 82.8824 20.7148 81.203 22.6352C79.5235 24.5556 78.0306 26.1296 77.9373 26.1296C77.8129 26.1296 76.2268 24.4296 74.3607 22.3518L70.9707 18.5741H67.7672H64.5327V21.8796Z" fill="#C9CECB"/>
<path d="M96.2559 29.4666C96.2559 38.8796 96.3181 40.5166 96.7535 41.4296C97.6865 43.4129 97.842 43.4444 109.909 43.4444H120.764L121.728 42.6259C122.256 42.1852 122.816 41.3037 123.003 40.6741C123.221 39.9185 123.314 35.8259 123.252 29.1204L123.158 18.7315L119.986 18.637L116.783 18.5426V27.7037V36.8333H109.785H102.787L102.725 27.7666L102.632 18.7315L99.4593 18.637L96.2559 18.5426V29.4666Z" fill="#C9CECB"/>
<path d="M130.623 18.7944C130.28 18.8889 129.752 19.1722 129.41 19.487C128.259 20.4944 127.979 21.8166 127.979 26.4444C127.979 31.1666 128.228 32.3629 129.534 33.5278C130.187 34.1259 130.747 34.1574 139.362 34.2518L148.506 34.3463V35.6055V36.8333H138.242H127.979V40.1389V43.4444H140.233H152.487L153.451 42.6259C154.85 41.4611 155.099 40.1074 154.975 34.9444C154.882 30.9778 154.788 30.2852 154.26 29.5296C153.015 27.8611 153.015 27.8611 143.467 27.7666L134.51 27.6722V26.4129V25.1852H143.623H152.736L153.731 22.1C154.291 20.4315 154.726 18.9204 154.726 18.7944C154.726 18.5426 131.649 18.5426 130.623 18.7944Z" fill="#C9CECB"/>
</svg>
